<svg width="64" height="64" viewBox="0 0 64 64" fill="none" xmlns="http://www.w3.org/2000/svg">
  <!-- Red circle background (Airbnb brand color) -->
  <circle cx="32" cy="32" r="32" fill="#FF385C"/>
  <!-- Airbnb Bélo symbol (official logo - stylized A/heart/location pin) -->
  <path d="M32 16C26.5 16 22 19.5 22 24C22 26 22.5 28 23.5 29.5L32 42L40.5 29.5C41.5 28 42 26 42 24C42 19.5 37.5 16 32 16ZM32 20.5C35 20.5 37.5 22 37.5 24C37.5 25 37 26 36.5 26.5L32 32.5L27.5 26.5C27 26 26.5 25 26.5 24C26.5 22 29 20.5 32 20.5Z" fill="white"/>
</svg>
