<svg width="64" height="64" viewBox="0 0 64 64" fill="none" xmlns="http://www.w3.org/2000/svg">
  <rect width="64" height="64" rx="12" fill="url(#gradient)"/>
  <defs>
    <linearGradient id="gradient" x1="0" y1="0" x2="64" y2="64" gradientUnits="userSpaceOnUse">
      <stop offset="0%" stop-color="#FF5A5F"/>
      <stop offset="100%" stop-color="#FF385C"/>
    </linearGradient>
  </defs>
  <!-- Airbnb Bélo logo shape -->
  <path d="M32 20C32 20 24 28 24 32C24 36 28 40 32 40C36 40 40 36 40 32C40 28 32 20 32 20Z" fill="white"/>
  <path d="M32 24C32 24 28 28 28 32C28 36 30 38 32 38C34 38 36 36 36 32C36 28 32 24 32 24Z" fill="#FF5A5F"/>
</svg>
