<svg width="64" height="64" viewBox="0 0 64 64" fill="none" xmlns="http://www.w3.org/2000/svg">
  <rect width="64" height="64" rx="12" fill="url(#gradient)"/>
  <defs>
    <linearGradient id="gradient" x1="0" y1="0" x2="64" y2="64" gradientUnits="userSpaceOnUse">
      <stop offset="0%" stop-color="#FF5A5F"/>
      <stop offset="100%" stop-color="#FF385C"/>
    </linearGradient>
  </defs>
  <path d="M32 12C20.954 12 12 20.954 12 32C12 43.046 20.954 52 32 52C43.046 52 52 43.046 52 32C52 20.954 43.046 12 32 12ZM32 48C23.163 48 16 40.837 16 32C16 23.163 23.163 16 32 16C40.837 16 48 23.163 48 32C48 40.837 40.837 48 32 48ZM30 24H34V36H30V24ZM30 40H34V42H30V40Z" fill="white"/>
</svg>
